<mxfile host="app.diagrams.net" modified="2021-05-11T13:38:38.513Z" agent="5.0 (Macintosh; Intel Mac OS X 10_15_7) AppleWebKit/537.36 (KHTML, like Gecko) Chrome/90.0.4430.93 Safari/537.36" etag="3tbmNhnbWqOdCghR-RYV" version="14.6.11" type="github">
  <diagram id="HzWVmrJhLnKqqHYpvlB9" name="Page-1">
    <mxGraphModel dx="7687" dy="3533" grid="1" gridSize="10" guides="1" tooltips="1" connect="1" arrows="1" fold="1" page="1" pageScale="1" pageWidth="3300" pageHeight="4681" math="0" shadow="0">
      <root>
        <mxCell id="0" />
        <mxCell id="1" parent="0" />
        <mxCell id="P4ZlikCDHFXMKBKO3XiY-16" style="edgeStyle=orthogonalEdgeStyle;rounded=0;orthogonalLoop=1;jettySize=auto;html=1;entryX=0.006;entryY=0.594;entryDx=0;entryDy=0;entryPerimeter=0;endArrow=ERmany;endFill=0;startArrow=none;startFill=0;strokeColor=#788AA3;fontColor=#46495D;" edge="1" parent="1" source="P4ZlikCDHFXMKBKO3XiY-3" target="P4ZlikCDHFXMKBKO3XiY-7">
          <mxGeometry relative="1" as="geometry">
            <Array as="points">
              <mxPoint x="1000" y="410" />
              <mxPoint x="1000" y="165" />
            </Array>
          </mxGeometry>
        </mxCell>
        <mxCell id="P4ZlikCDHFXMKBKO3XiY-3" value="&lt;div style=&quot;box-sizing: border-box ; width: 100% ; background: #e4e4e4 ; padding: 2px&quot;&gt;Contributor&amp;nbsp;&lt;/div&gt;&lt;table style=&quot;width: 100% ; font-size: 1em&quot; cellpadding=&quot;2&quot; cellspacing=&quot;0&quot;&gt;&lt;tbody&gt;&lt;tr&gt;&lt;td&gt;PK&lt;/td&gt;&lt;td&gt;Id_contributor&lt;br&gt;&lt;/td&gt;&lt;/tr&gt;&lt;tr&gt;&lt;td&gt;&lt;br&gt;&lt;br&gt;&lt;br&gt;&lt;br&gt;&lt;br&gt;&lt;br&gt;&lt;br&gt;&lt;br&gt;&lt;br&gt;&lt;br&gt;&lt;br&gt;&lt;/td&gt;&lt;td&gt;nome_azienda&lt;br&gt;settore&lt;br&gt;partita_iva&lt;br&gt;descrizione_attività&lt;br&gt;stato&lt;br&gt;provincia&lt;br&gt;città&lt;br&gt;indirizzo&lt;br&gt;cap&lt;br&gt;telefono&lt;br&gt;fax&lt;br&gt;indirizzo_email&lt;br&gt;password&lt;br&gt;&lt;br&gt;&lt;br&gt;&lt;br&gt;&lt;br&gt;&lt;/td&gt;&lt;/tr&gt;&lt;tr&gt;&lt;td&gt;&amp;nbsp;&lt;/td&gt;&lt;td&gt;&lt;br&gt;&lt;/td&gt;&lt;/tr&gt;&lt;/tbody&gt;&lt;/table&gt;" style="verticalAlign=top;align=left;overflow=fill;html=1;fillColor=#B2C9AB;strokeColor=#788AA3;fontColor=#46495D;" vertex="1" parent="1">
          <mxGeometry x="700" y="340" width="206" height="250" as="geometry" />
        </mxCell>
        <mxCell id="P4ZlikCDHFXMKBKO3XiY-18" style="edgeStyle=orthogonalEdgeStyle;rounded=0;orthogonalLoop=1;jettySize=auto;html=1;startArrow=none;startFill=0;endArrow=ERmany;endFill=0;strokeColor=#788AA3;fontColor=#46495D;" edge="1" parent="1" source="P4ZlikCDHFXMKBKO3XiY-4" target="P4ZlikCDHFXMKBKO3XiY-6">
          <mxGeometry relative="1" as="geometry" />
        </mxCell>
        <mxCell id="P4ZlikCDHFXMKBKO3XiY-4" value="&lt;div style=&quot;box-sizing: border-box ; width: 100% ; background: #e4e4e4 ; padding: 2px&quot;&gt;Guest&lt;/div&gt;&lt;table style=&quot;width: 100% ; font-size: 1em&quot; cellpadding=&quot;2&quot; cellspacing=&quot;0&quot;&gt;&lt;tbody&gt;&lt;tr&gt;&lt;td&gt;PK&lt;/td&gt;&lt;td&gt;Id_guest&lt;br&gt;&lt;/td&gt;&lt;/tr&gt;&lt;tr&gt;&lt;td&gt;&lt;br&gt;&lt;br&gt;&lt;br&gt;&lt;br&gt;&lt;/td&gt;&lt;td&gt;nome&lt;br&gt;cognome&lt;br&gt;immagine&lt;br&gt;data_nascita&lt;br&gt;indrizzo_email&lt;br&gt;password&lt;br&gt;&lt;br&gt;&lt;br&gt;&lt;br&gt;&lt;br&gt;&lt;/td&gt;&lt;/tr&gt;&lt;tr&gt;&lt;td&gt;&amp;nbsp;&lt;/td&gt;&lt;td&gt;&lt;br&gt;&lt;/td&gt;&lt;/tr&gt;&lt;/tbody&gt;&lt;/table&gt;" style="verticalAlign=top;align=left;overflow=fill;html=1;fillColor=#B2C9AB;strokeColor=#788AA3;fontColor=#46495D;" vertex="1" parent="1">
          <mxGeometry x="280" y="530" width="180" height="160" as="geometry" />
        </mxCell>
        <mxCell id="P4ZlikCDHFXMKBKO3XiY-6" value="&lt;div style=&quot;box-sizing: border-box ; width: 100% ; background: #e4e4e4 ; padding: 2px&quot;&gt;Domanda&amp;nbsp;&lt;/div&gt;&lt;table style=&quot;width: 100% ; font-size: 1em&quot; cellpadding=&quot;2&quot; cellspacing=&quot;0&quot;&gt;&lt;tbody&gt;&lt;tr&gt;&lt;td&gt;PK&lt;/td&gt;&lt;td&gt;Id_domanda&lt;br&gt;&lt;/td&gt;&lt;/tr&gt;&lt;tr&gt;&lt;td&gt;&lt;br&gt;&lt;br&gt;&lt;br&gt;&lt;/td&gt;&lt;td&gt;domanda&lt;br&gt;data_domanda&lt;br&gt;&lt;/td&gt;&lt;/tr&gt;&lt;tr&gt;&lt;td&gt;&amp;nbsp;&lt;/td&gt;&lt;td&gt;&lt;br&gt;&lt;/td&gt;&lt;/tr&gt;&lt;/tbody&gt;&lt;/table&gt;" style="verticalAlign=top;align=left;overflow=fill;html=1;fillColor=#B2C9AB;strokeColor=#788AA3;fontColor=#46495D;" vertex="1" parent="1">
          <mxGeometry x="280" y="770" width="180" height="125" as="geometry" />
        </mxCell>
        <mxCell id="P4ZlikCDHFXMKBKO3XiY-7" value="&lt;div style=&quot;box-sizing: border-box ; width: 100% ; background: #e4e4e4 ; padding: 2px&quot;&gt;Servizio&lt;/div&gt;&lt;table style=&quot;width: 100% ; font-size: 1em&quot; cellpadding=&quot;2&quot; cellspacing=&quot;0&quot;&gt;&lt;tbody&gt;&lt;tr&gt;&lt;td&gt;PK&lt;/td&gt;&lt;td&gt;Id_servizio&lt;br&gt;&lt;/td&gt;&lt;/tr&gt;&lt;tr&gt;&lt;td&gt;&lt;br&gt;&lt;/td&gt;&lt;td&gt;nome_servizio&lt;br&gt;descrizione_servizio&lt;br&gt;immagine&lt;br&gt;prezzo&lt;br&gt;disponibilità&lt;br&gt;&lt;br&gt;&lt;/td&gt;&lt;/tr&gt;&lt;tr&gt;&lt;td&gt;&amp;nbsp;&lt;/td&gt;&lt;td&gt;&lt;br&gt;&lt;br&gt;&lt;/td&gt;&lt;/tr&gt;&lt;/tbody&gt;&lt;/table&gt;" style="verticalAlign=top;align=left;overflow=fill;html=1;fillColor=#B2C9AB;strokeColor=#788AA3;fontColor=#46495D;" vertex="1" parent="1">
          <mxGeometry x="1060" y="70" width="180" height="160" as="geometry" />
        </mxCell>
        <mxCell id="P4ZlikCDHFXMKBKO3XiY-10" value="&lt;div style=&quot;box-sizing: border-box ; width: 100% ; background: #e4e4e4 ; padding: 2px&quot;&gt;Promozione&lt;/div&gt;&lt;table style=&quot;width: 100% ; font-size: 1em&quot; cellpadding=&quot;2&quot; cellspacing=&quot;0&quot;&gt;&lt;tbody&gt;&lt;tr&gt;&lt;td&gt;PK&lt;/td&gt;&lt;td&gt;Id_promozione&lt;br&gt;&lt;/td&gt;&lt;/tr&gt;&lt;tr&gt;&lt;td&gt;&lt;br&gt;&lt;br&gt;&lt;br&gt;&lt;br&gt;&lt;/td&gt;&lt;td&gt;nome_promozione&lt;br&gt;data_promozione&lt;br&gt;percentuale_promozione&lt;br&gt;&lt;br&gt;&lt;br&gt;&lt;/td&gt;&lt;/tr&gt;&lt;tr&gt;&lt;td&gt;&amp;nbsp;&lt;/td&gt;&lt;td&gt;&lt;br&gt;&lt;/td&gt;&lt;/tr&gt;&lt;/tbody&gt;&lt;/table&gt;" style="verticalAlign=top;align=left;overflow=fill;html=1;fillColor=#B2C9AB;strokeColor=#788AA3;fontColor=#46495D;" vertex="1" parent="1">
          <mxGeometry x="1826" y="890" width="180" height="160" as="geometry" />
        </mxCell>
        <mxCell id="P4ZlikCDHFXMKBKO3XiY-19" style="edgeStyle=orthogonalEdgeStyle;rounded=0;orthogonalLoop=1;jettySize=auto;html=1;entryX=0.5;entryY=1;entryDx=0;entryDy=0;startArrow=ERmany;startFill=0;endArrow=none;endFill=0;strokeColor=#788AA3;fontColor=#46495D;" edge="1" parent="1" source="P4ZlikCDHFXMKBKO3XiY-11" target="P4ZlikCDHFXMKBKO3XiY-6">
          <mxGeometry relative="1" as="geometry" />
        </mxCell>
        <mxCell id="P4ZlikCDHFXMKBKO3XiY-29" style="edgeStyle=orthogonalEdgeStyle;rounded=0;orthogonalLoop=1;jettySize=auto;html=1;entryX=0;entryY=0.5;entryDx=0;entryDy=0;startArrow=ERmany;startFill=0;endArrow=none;endFill=0;strokeColor=#788AA3;fontColor=#46495D;" edge="1" parent="1" source="P4ZlikCDHFXMKBKO3XiY-11" target="P4ZlikCDHFXMKBKO3XiY-3">
          <mxGeometry relative="1" as="geometry" />
        </mxCell>
        <mxCell id="P4ZlikCDHFXMKBKO3XiY-11" value="&lt;div style=&quot;box-sizing: border-box ; width: 100% ; background: #e4e4e4 ; padding: 2px&quot;&gt;Risposta&lt;/div&gt;&lt;table style=&quot;width: 100% ; font-size: 1em&quot; cellpadding=&quot;2&quot; cellspacing=&quot;0&quot;&gt;&lt;tbody&gt;&lt;tr&gt;&lt;td&gt;PK&lt;/td&gt;&lt;td&gt;Id_risposta&lt;br&gt;&lt;/td&gt;&lt;/tr&gt;&lt;tr&gt;&lt;td&gt;&lt;br&gt;&lt;br&gt;&lt;/td&gt;&lt;td&gt;risposta&lt;br&gt;data_risposta&lt;br&gt;&lt;br&gt;&lt;/td&gt;&lt;/tr&gt;&lt;tr&gt;&lt;td&gt;&amp;nbsp;&lt;/td&gt;&lt;td&gt;&lt;br&gt;&lt;/td&gt;&lt;/tr&gt;&lt;/tbody&gt;&lt;/table&gt;" style="verticalAlign=top;align=left;overflow=fill;html=1;fillColor=#B2C9AB;strokeColor=#788AA3;fontColor=#46495D;" vertex="1" parent="1">
          <mxGeometry x="200" y="580" width="180" height="160" as="geometry" />
        </mxCell>
        <mxCell id="P4ZlikCDHFXMKBKO3XiY-21" style="edgeStyle=orthogonalEdgeStyle;rounded=0;orthogonalLoop=1;jettySize=auto;html=1;entryX=0;entryY=0.5;entryDx=0;entryDy=0;startArrow=ERmany;startFill=0;endArrow=none;endFill=0;strokeColor=#788AA3;fontColor=#46495D;" edge="1" parent="1" source="P4ZlikCDHFXMKBKO3XiY-13" target="P4ZlikCDHFXMKBKO3XiY-10">
          <mxGeometry relative="1" as="geometry" />
        </mxCell>
        <mxCell id="P4ZlikCDHFXMKBKO3XiY-23" style="edgeStyle=orthogonalEdgeStyle;rounded=0;orthogonalLoop=1;jettySize=auto;html=1;entryX=0.5;entryY=0;entryDx=0;entryDy=0;startArrow=none;startFill=0;endArrow=none;endFill=0;strokeColor=#788AA3;fontColor=#46495D;" edge="1" parent="1" source="P4ZlikCDHFXMKBKO3XiY-13" target="P4ZlikCDHFXMKBKO3XiY-14">
          <mxGeometry relative="1" as="geometry" />
        </mxCell>
        <mxCell id="P4ZlikCDHFXMKBKO3XiY-51" style="edgeStyle=orthogonalEdgeStyle;rounded=0;orthogonalLoop=1;jettySize=auto;html=1;entryX=0.433;entryY=0.994;entryDx=0;entryDy=0;entryPerimeter=0;startArrow=ERmany;startFill=0;endArrow=ERmany;endFill=0;" edge="1" parent="1" source="P4ZlikCDHFXMKBKO3XiY-13" target="P4ZlikCDHFXMKBKO3XiY-7">
          <mxGeometry relative="1" as="geometry" />
        </mxCell>
        <mxCell id="P4ZlikCDHFXMKBKO3XiY-13" value="&lt;div style=&quot;box-sizing: border-box ; width: 100% ; background: #e4e4e4 ; padding: 2px&quot;&gt;Ordine&lt;/div&gt;&lt;table style=&quot;width: 100% ; font-size: 1em&quot; cellpadding=&quot;2&quot; cellspacing=&quot;0&quot;&gt;&lt;tbody&gt;&lt;tr&gt;&lt;td&gt;PK&lt;/td&gt;&lt;td&gt;Id_ordine&lt;br&gt;&lt;/td&gt;&lt;/tr&gt;&lt;tr&gt;&lt;td&gt;&lt;br&gt;&lt;/td&gt;&lt;td&gt;quantità&lt;br&gt;&lt;br&gt;&lt;br&gt;&lt;/td&gt;&lt;/tr&gt;&lt;tr&gt;&lt;td&gt;&amp;nbsp;&lt;/td&gt;&lt;td&gt;&lt;br&gt;&lt;/td&gt;&lt;/tr&gt;&lt;/tbody&gt;&lt;/table&gt;" style="verticalAlign=top;align=left;overflow=fill;html=1;fillColor=#B2C9AB;strokeColor=#788AA3;fontColor=#46495D;" vertex="1" parent="1">
          <mxGeometry x="1180" y="510" width="180" height="160" as="geometry" />
        </mxCell>
        <mxCell id="P4ZlikCDHFXMKBKO3XiY-22" style="edgeStyle=orthogonalEdgeStyle;rounded=0;orthogonalLoop=1;jettySize=auto;html=1;entryX=0;entryY=0.5;entryDx=0;entryDy=0;startArrow=none;startFill=0;endArrow=ERmany;endFill=0;strokeColor=#788AA3;fontColor=#46495D;" edge="1" parent="1" source="P4ZlikCDHFXMKBKO3XiY-14" target="P4ZlikCDHFXMKBKO3XiY-15">
          <mxGeometry relative="1" as="geometry" />
        </mxCell>
        <mxCell id="P4ZlikCDHFXMKBKO3XiY-14" value="&lt;div style=&quot;box-sizing: border-box ; width: 100% ; background: #e4e4e4 ; padding: 2px&quot;&gt;Pagamento&lt;/div&gt;&lt;table style=&quot;width: 100% ; font-size: 1em&quot; cellpadding=&quot;2&quot; cellspacing=&quot;0&quot;&gt;&lt;tbody&gt;&lt;tr&gt;&lt;td&gt;PK&lt;/td&gt;&lt;td&gt;Id_pagamento&lt;br&gt;&lt;/td&gt;&lt;/tr&gt;&lt;tr&gt;&lt;td&gt;&lt;br&gt;&lt;br&gt;&lt;/td&gt;&lt;td&gt;data_pagamento&lt;br&gt;&lt;br&gt;&lt;br&gt;&lt;br&gt;&lt;/td&gt;&lt;/tr&gt;&lt;tr&gt;&lt;td&gt;&amp;nbsp;&lt;/td&gt;&lt;td&gt;&lt;br&gt;&lt;/td&gt;&lt;/tr&gt;&lt;/tbody&gt;&lt;/table&gt;" style="verticalAlign=top;align=left;overflow=fill;html=1;fillColor=#B2C9AB;strokeColor=#788AA3;fontColor=#46495D;" vertex="1" parent="1">
          <mxGeometry x="1116" y="730" width="180" height="160" as="geometry" />
        </mxCell>
        <mxCell id="P4ZlikCDHFXMKBKO3XiY-15" value="&lt;div style=&quot;box-sizing: border-box ; width: 100% ; background: #e4e4e4 ; padding: 2px&quot;&gt;Modalità_Pagamento&lt;/div&gt;&lt;table style=&quot;width: 100% ; font-size: 1em&quot; cellpadding=&quot;2&quot; cellspacing=&quot;0&quot;&gt;&lt;tbody&gt;&lt;tr&gt;&lt;td&gt;PK&lt;/td&gt;&lt;td&gt;Id_modalità_pagamento&lt;br&gt;&lt;/td&gt;&lt;/tr&gt;&lt;tr&gt;&lt;td&gt;&lt;br&gt;&lt;/td&gt;&lt;td&gt;nome_modalità&lt;br&gt;&lt;br&gt;&lt;br&gt;&lt;br&gt;&lt;/td&gt;&lt;/tr&gt;&lt;tr&gt;&lt;td&gt;&amp;nbsp;&lt;/td&gt;&lt;td&gt;&lt;br&gt;&lt;/td&gt;&lt;/tr&gt;&lt;/tbody&gt;&lt;/table&gt;" style="verticalAlign=top;align=left;overflow=fill;html=1;fillColor=#B2C9AB;strokeColor=#788AA3;fontColor=#46495D;" vertex="1" parent="1">
          <mxGeometry x="1646" y="1110" width="180" height="160" as="geometry" />
        </mxCell>
        <mxCell id="P4ZlikCDHFXMKBKO3XiY-30" style="edgeStyle=orthogonalEdgeStyle;rounded=0;orthogonalLoop=1;jettySize=auto;html=1;entryX=0.006;entryY=0.594;entryDx=0;entryDy=0;entryPerimeter=0;endArrow=ERmany;endFill=0;startArrow=none;startFill=0;" edge="1" parent="1" source="P4ZlikCDHFXMKBKO3XiY-32" target="P4ZlikCDHFXMKBKO3XiY-38">
          <mxGeometry relative="1" as="geometry" />
        </mxCell>
        <mxCell id="P4ZlikCDHFXMKBKO3XiY-31" style="edgeStyle=orthogonalEdgeStyle;rounded=0;orthogonalLoop=1;jettySize=auto;html=1;entryX=0.5;entryY=0;entryDx=0;entryDy=0;endArrow=ERmany;endFill=0;startArrow=none;startFill=0;" edge="1" parent="1" source="P4ZlikCDHFXMKBKO3XiY-32" target="P4ZlikCDHFXMKBKO3XiY-35">
          <mxGeometry relative="1" as="geometry" />
        </mxCell>
        <mxCell id="P4ZlikCDHFXMKBKO3XiY-32" value="&lt;div style=&quot;box-sizing: border-box ; width: 100% ; background: #e4e4e4 ; padding: 2px&quot;&gt;Contributor&amp;nbsp;&lt;/div&gt;&lt;table style=&quot;width: 100% ; font-size: 1em&quot; cellpadding=&quot;2&quot; cellspacing=&quot;0&quot;&gt;&lt;tbody&gt;&lt;tr&gt;&lt;td&gt;PK&lt;/td&gt;&lt;td&gt;Id_contributor&lt;br&gt;&lt;/td&gt;&lt;/tr&gt;&lt;tr&gt;&lt;td&gt;&lt;br&gt;&lt;br&gt;&lt;br&gt;&lt;br&gt;&lt;br&gt;&lt;br&gt;&lt;br&gt;&lt;br&gt;&lt;br&gt;&lt;br&gt;&lt;br&gt;&lt;/td&gt;&lt;td&gt;nome_azienda&lt;br&gt;settore&lt;br&gt;partita_iva&lt;br&gt;descrizione_attività&lt;br&gt;stato&lt;br&gt;provincia&lt;br&gt;città&lt;br&gt;indirizzo&lt;br&gt;cap&lt;br&gt;telefono&lt;br&gt;fax&lt;br&gt;indirizzo_email&lt;br&gt;password&lt;br&gt;&lt;br&gt;&lt;br&gt;&lt;br&gt;&lt;br&gt;&lt;/td&gt;&lt;/tr&gt;&lt;tr&gt;&lt;td&gt;&amp;nbsp;&lt;/td&gt;&lt;td&gt;&lt;br&gt;&lt;/td&gt;&lt;/tr&gt;&lt;/tbody&gt;&lt;/table&gt;" style="verticalAlign=top;align=left;overflow=fill;html=1;fillColor=#F694C1;strokeColor=#AF45ED;fontColor=#095C86;" vertex="1" parent="1">
          <mxGeometry x="2990" y="500" width="206" height="250" as="geometry" />
        </mxCell>
        <mxCell id="P4ZlikCDHFXMKBKO3XiY-33" style="edgeStyle=orthogonalEdgeStyle;rounded=0;orthogonalLoop=1;jettySize=auto;html=1;startArrow=none;startFill=0;endArrow=ERmany;endFill=0;" edge="1" parent="1" source="P4ZlikCDHFXMKBKO3XiY-34" target="P4ZlikCDHFXMKBKO3XiY-36">
          <mxGeometry relative="1" as="geometry" />
        </mxCell>
        <mxCell id="P4ZlikCDHFXMKBKO3XiY-34" value="&lt;div style=&quot;box-sizing: border-box ; width: 100% ; background: #e4e4e4 ; padding: 2px&quot;&gt;Guest&lt;/div&gt;&lt;table style=&quot;width: 100% ; font-size: 1em&quot; cellpadding=&quot;2&quot; cellspacing=&quot;0&quot;&gt;&lt;tbody&gt;&lt;tr&gt;&lt;td&gt;PK&lt;/td&gt;&lt;td&gt;Id_guest&lt;br&gt;&lt;/td&gt;&lt;/tr&gt;&lt;tr&gt;&lt;td&gt;&lt;br&gt;&lt;br&gt;&lt;br&gt;&lt;br&gt;&lt;/td&gt;&lt;td&gt;nome&lt;br&gt;cognome&lt;br&gt;immagine&lt;br&gt;data_nascita&lt;br&gt;indrizzo_email&lt;br&gt;password&lt;br&gt;&lt;br&gt;&lt;br&gt;&lt;br&gt;&lt;br&gt;&lt;/td&gt;&lt;/tr&gt;&lt;tr&gt;&lt;td&gt;&amp;nbsp;&lt;/td&gt;&lt;td&gt;&lt;br&gt;&lt;/td&gt;&lt;/tr&gt;&lt;/tbody&gt;&lt;/table&gt;" style="verticalAlign=top;align=left;overflow=fill;html=1;fillColor=#F694C1;strokeColor=#AF45ED;fontColor=#095C86;" vertex="1" parent="1">
          <mxGeometry x="2500" y="490" width="180" height="160" as="geometry" />
        </mxCell>
        <mxCell id="P4ZlikCDHFXMKBKO3XiY-35" value="&lt;div style=&quot;box-sizing: border-box ; width: 100% ; background: #e4e4e4 ; padding: 2px&quot;&gt;Fornitore&lt;/div&gt;&lt;table style=&quot;width: 100% ; font-size: 1em&quot; cellpadding=&quot;2&quot; cellspacing=&quot;0&quot;&gt;&lt;tbody&gt;&lt;tr&gt;&lt;td&gt;PK&lt;/td&gt;&lt;td&gt;Id_fornitore&lt;br&gt;&lt;/td&gt;&lt;/tr&gt;&lt;tr&gt;&lt;td&gt;&lt;br&gt;FK&lt;/td&gt;&lt;td&gt;nome&lt;br&gt;immagine&lt;br&gt;Id_contributor&lt;br&gt;&lt;br&gt;&lt;/td&gt;&lt;/tr&gt;&lt;tr&gt;&lt;td&gt;&amp;nbsp;&lt;/td&gt;&lt;td&gt;&lt;br&gt;&lt;/td&gt;&lt;/tr&gt;&lt;/tbody&gt;&lt;/table&gt;" style="verticalAlign=top;align=left;overflow=fill;html=1;fillColor=#F694C1;strokeColor=#AF45ED;fontColor=#095C86;" vertex="1" parent="1">
          <mxGeometry x="3003" y="850" width="180" height="125" as="geometry" />
        </mxCell>
        <mxCell id="P4ZlikCDHFXMKBKO3XiY-36" value="&lt;div style=&quot;box-sizing: border-box ; width: 100% ; background: #e4e4e4 ; padding: 2px&quot;&gt;Domanda&amp;nbsp;&lt;/div&gt;&lt;table style=&quot;width: 100% ; font-size: 1em&quot; cellpadding=&quot;2&quot; cellspacing=&quot;0&quot;&gt;&lt;tbody&gt;&lt;tr&gt;&lt;td&gt;PK&lt;/td&gt;&lt;td&gt;Id_domanda&lt;br&gt;&lt;/td&gt;&lt;/tr&gt;&lt;tr&gt;&lt;td&gt;&lt;br&gt;&lt;br&gt;FK&lt;/td&gt;&lt;td&gt;domanda&lt;br&gt;data_domanda&lt;br&gt;Id_guest&lt;/td&gt;&lt;/tr&gt;&lt;tr&gt;&lt;td&gt;&amp;nbsp;&lt;/td&gt;&lt;td&gt;&lt;br&gt;&lt;/td&gt;&lt;/tr&gt;&lt;/tbody&gt;&lt;/table&gt;" style="verticalAlign=top;align=left;overflow=fill;html=1;fillColor=#F694C1;strokeColor=#AF45ED;fontColor=#095C86;" vertex="1" parent="1">
          <mxGeometry x="2500" y="730" width="180" height="125" as="geometry" />
        </mxCell>
        <mxCell id="P4ZlikCDHFXMKBKO3XiY-37" style="edgeStyle=orthogonalEdgeStyle;rounded=0;orthogonalLoop=1;jettySize=auto;html=1;entryX=0.5;entryY=0;entryDx=0;entryDy=0;startArrow=none;startFill=0;endArrow=ERmany;endFill=0;" edge="1" parent="1" source="P4ZlikCDHFXMKBKO3XiY-38" target="P4ZlikCDHFXMKBKO3XiY-50">
          <mxGeometry relative="1" as="geometry" />
        </mxCell>
        <mxCell id="P4ZlikCDHFXMKBKO3XiY-38" value="&lt;div style=&quot;box-sizing: border-box ; width: 100% ; background: #e4e4e4 ; padding: 2px&quot;&gt;Servizio&lt;/div&gt;&lt;table style=&quot;width: 100% ; font-size: 1em&quot; cellpadding=&quot;2&quot; cellspacing=&quot;0&quot;&gt;&lt;tbody&gt;&lt;tr&gt;&lt;td&gt;PK&lt;/td&gt;&lt;td&gt;Id_servizio&lt;br&gt;&lt;/td&gt;&lt;/tr&gt;&lt;tr&gt;&lt;td&gt;&lt;br&gt;&lt;/td&gt;&lt;td&gt;nome_servizio&lt;br&gt;descrizione_servizio&lt;br&gt;immagine&lt;br&gt;prezzo&lt;br&gt;disponibilità&lt;br&gt;&lt;br&gt;&lt;/td&gt;&lt;/tr&gt;&lt;tr&gt;&lt;td&gt;FK&amp;nbsp;&lt;/td&gt;&lt;td&gt;&lt;br&gt;Id_contributor&lt;br&gt;&lt;br&gt;&lt;/td&gt;&lt;/tr&gt;&lt;/tbody&gt;&lt;/table&gt;" style="verticalAlign=top;align=left;overflow=fill;html=1;fillColor=#F694C1;strokeColor=#AF45ED;fontColor=#095C86;" vertex="1" parent="1">
          <mxGeometry x="3406" y="410" width="180" height="160" as="geometry" />
        </mxCell>
        <mxCell id="P4ZlikCDHFXMKBKO3XiY-39" value="&lt;div style=&quot;box-sizing: border-box ; width: 100% ; background: #e4e4e4 ; padding: 2px&quot;&gt;Promozione&lt;/div&gt;&lt;table style=&quot;width: 100% ; font-size: 1em&quot; cellpadding=&quot;2&quot; cellspacing=&quot;0&quot;&gt;&lt;tbody&gt;&lt;tr&gt;&lt;td&gt;PK&lt;/td&gt;&lt;td&gt;Id_promozione&lt;br&gt;&lt;/td&gt;&lt;/tr&gt;&lt;tr&gt;&lt;td&gt;&lt;br&gt;&lt;br&gt;&lt;br&gt;&lt;br&gt;&lt;/td&gt;&lt;td&gt;nome_promozione&lt;br&gt;data_promozione&lt;br&gt;percentuale_promozione&lt;br&gt;&lt;br&gt;&lt;br&gt;&lt;/td&gt;&lt;/tr&gt;&lt;tr&gt;&lt;td&gt;&amp;nbsp;&lt;/td&gt;&lt;td&gt;&lt;br&gt;&lt;/td&gt;&lt;/tr&gt;&lt;/tbody&gt;&lt;/table&gt;" style="verticalAlign=top;align=left;overflow=fill;html=1;fillColor=#F694C1;strokeColor=#AF45ED;fontColor=#095C86;" vertex="1" parent="1">
          <mxGeometry x="4046" y="850" width="180" height="160" as="geometry" />
        </mxCell>
        <mxCell id="P4ZlikCDHFXMKBKO3XiY-40" style="edgeStyle=orthogonalEdgeStyle;rounded=0;orthogonalLoop=1;jettySize=auto;html=1;entryX=0.5;entryY=1;entryDx=0;entryDy=0;startArrow=ERmany;startFill=0;endArrow=none;endFill=0;" edge="1" parent="1" source="P4ZlikCDHFXMKBKO3XiY-42" target="P4ZlikCDHFXMKBKO3XiY-36">
          <mxGeometry relative="1" as="geometry" />
        </mxCell>
        <mxCell id="P4ZlikCDHFXMKBKO3XiY-41" style="edgeStyle=orthogonalEdgeStyle;rounded=0;orthogonalLoop=1;jettySize=auto;html=1;entryX=0;entryY=0.5;entryDx=0;entryDy=0;startArrow=ERmany;startFill=0;endArrow=none;endFill=0;" edge="1" parent="1" source="P4ZlikCDHFXMKBKO3XiY-42" target="P4ZlikCDHFXMKBKO3XiY-32">
          <mxGeometry relative="1" as="geometry" />
        </mxCell>
        <mxCell id="P4ZlikCDHFXMKBKO3XiY-42" value="&lt;div style=&quot;box-sizing: border-box ; width: 100% ; background: #e4e4e4 ; padding: 2px&quot;&gt;Risposta&lt;/div&gt;&lt;table style=&quot;width: 100% ; font-size: 1em&quot; cellpadding=&quot;2&quot; cellspacing=&quot;0&quot;&gt;&lt;tbody&gt;&lt;tr&gt;&lt;td&gt;PK&lt;/td&gt;&lt;td&gt;Id_risposta&lt;br&gt;&lt;/td&gt;&lt;/tr&gt;&lt;tr&gt;&lt;td&gt;&lt;br&gt;FK&lt;/td&gt;&lt;td&gt;risposta&lt;br&gt;data_risposta&lt;br&gt;Id_domanda&lt;br&gt;Id_contributor&lt;/td&gt;&lt;/tr&gt;&lt;tr&gt;&lt;td&gt;&amp;nbsp;&lt;/td&gt;&lt;td&gt;&lt;br&gt;&lt;/td&gt;&lt;/tr&gt;&lt;/tbody&gt;&lt;/table&gt;" style="verticalAlign=top;align=left;overflow=fill;html=1;fillColor=#F694C1;strokeColor=#AF45ED;fontColor=#095C86;" vertex="1" parent="1">
          <mxGeometry x="2500" y="930" width="180" height="160" as="geometry" />
        </mxCell>
        <mxCell id="P4ZlikCDHFXMKBKO3XiY-43" style="edgeStyle=orthogonalEdgeStyle;rounded=0;orthogonalLoop=1;jettySize=auto;html=1;entryX=0;entryY=0.5;entryDx=0;entryDy=0;startArrow=ERmany;startFill=0;endArrow=none;endFill=0;" edge="1" parent="1" source="P4ZlikCDHFXMKBKO3XiY-46" target="P4ZlikCDHFXMKBKO3XiY-39">
          <mxGeometry relative="1" as="geometry" />
        </mxCell>
        <mxCell id="P4ZlikCDHFXMKBKO3XiY-44" style="edgeStyle=orthogonalEdgeStyle;rounded=0;orthogonalLoop=1;jettySize=auto;html=1;entryX=0.5;entryY=0;entryDx=0;entryDy=0;startArrow=none;startFill=0;endArrow=none;endFill=0;" edge="1" parent="1" source="P4ZlikCDHFXMKBKO3XiY-46" target="P4ZlikCDHFXMKBKO3XiY-48">
          <mxGeometry relative="1" as="geometry" />
        </mxCell>
        <mxCell id="P4ZlikCDHFXMKBKO3XiY-45" style="edgeStyle=orthogonalEdgeStyle;rounded=0;orthogonalLoop=1;jettySize=auto;html=1;entryX=0.5;entryY=1;entryDx=0;entryDy=0;startArrow=none;startFill=0;endArrow=ERmany;endFill=0;" edge="1" parent="1" source="P4ZlikCDHFXMKBKO3XiY-46" target="P4ZlikCDHFXMKBKO3XiY-50">
          <mxGeometry relative="1" as="geometry" />
        </mxCell>
        <mxCell id="P4ZlikCDHFXMKBKO3XiY-46" value="&lt;div style=&quot;box-sizing: border-box ; width: 100% ; background: #e4e4e4 ; padding: 2px&quot;&gt;Ordine&lt;/div&gt;&lt;table style=&quot;width: 100% ; font-size: 1em&quot; cellpadding=&quot;2&quot; cellspacing=&quot;0&quot;&gt;&lt;tbody&gt;&lt;tr&gt;&lt;td&gt;PK&lt;/td&gt;&lt;td&gt;Id_ordine&lt;br&gt;&lt;/td&gt;&lt;/tr&gt;&lt;tr&gt;&lt;td&gt;&lt;br&gt;&lt;/td&gt;&lt;td&gt;quantità&lt;br&gt;&lt;br&gt;&lt;br&gt;&lt;/td&gt;&lt;/tr&gt;&lt;tr&gt;&lt;td&gt;&amp;nbsp;FK&lt;/td&gt;&lt;td&gt;Id_promozione&lt;/td&gt;&lt;/tr&gt;&lt;/tbody&gt;&lt;/table&gt;" style="verticalAlign=top;align=left;overflow=fill;html=1;fillColor=#F694C1;strokeColor=#AF45ED;fontColor=#095C86;" vertex="1" parent="1">
          <mxGeometry x="3416" y="850" width="180" height="160" as="geometry" />
        </mxCell>
        <mxCell id="P4ZlikCDHFXMKBKO3XiY-47" style="edgeStyle=orthogonalEdgeStyle;rounded=0;orthogonalLoop=1;jettySize=auto;html=1;entryX=0;entryY=0.5;entryDx=0;entryDy=0;startArrow=none;startFill=0;endArrow=ERmany;endFill=0;" edge="1" parent="1" source="P4ZlikCDHFXMKBKO3XiY-48" target="P4ZlikCDHFXMKBKO3XiY-49">
          <mxGeometry relative="1" as="geometry" />
        </mxCell>
        <mxCell id="P4ZlikCDHFXMKBKO3XiY-48" value="&lt;div style=&quot;box-sizing: border-box ; width: 100% ; background: #e4e4e4 ; padding: 2px&quot;&gt;Pagamento&lt;/div&gt;&lt;table style=&quot;width: 100% ; font-size: 1em&quot; cellpadding=&quot;2&quot; cellspacing=&quot;0&quot;&gt;&lt;tbody&gt;&lt;tr&gt;&lt;td&gt;PK&lt;/td&gt;&lt;td&gt;Id_pagamento&lt;br&gt;&lt;/td&gt;&lt;/tr&gt;&lt;tr&gt;&lt;td&gt;&lt;br&gt;FK&lt;/td&gt;&lt;td&gt;data_pagamento&lt;br&gt;&lt;br&gt;Id_modalità_pagamento&lt;br&gt;&lt;br&gt;&lt;/td&gt;&lt;/tr&gt;&lt;tr&gt;&lt;td&gt;&amp;nbsp;&lt;/td&gt;&lt;td&gt;&lt;br&gt;&lt;/td&gt;&lt;/tr&gt;&lt;/tbody&gt;&lt;/table&gt;" style="verticalAlign=top;align=left;overflow=fill;html=1;fillColor=#F694C1;strokeColor=#AF45ED;fontColor=#095C86;" vertex="1" parent="1">
          <mxGeometry x="3506" y="1080" width="180" height="160" as="geometry" />
        </mxCell>
        <mxCell id="P4ZlikCDHFXMKBKO3XiY-49" value="&lt;div style=&quot;box-sizing: border-box ; width: 100% ; background: #e4e4e4 ; padding: 2px&quot;&gt;Modalità_Pagamento&lt;/div&gt;&lt;table style=&quot;width: 100% ; font-size: 1em&quot; cellpadding=&quot;2&quot; cellspacing=&quot;0&quot;&gt;&lt;tbody&gt;&lt;tr&gt;&lt;td&gt;PK&lt;/td&gt;&lt;td&gt;Id_modalità_pagamento&lt;br&gt;&lt;/td&gt;&lt;/tr&gt;&lt;tr&gt;&lt;td&gt;&lt;br&gt;&lt;/td&gt;&lt;td&gt;nome_modalità&lt;br&gt;&lt;br&gt;&lt;br&gt;&lt;br&gt;&lt;/td&gt;&lt;/tr&gt;&lt;tr&gt;&lt;td&gt;&amp;nbsp;&lt;/td&gt;&lt;td&gt;&lt;br&gt;&lt;/td&gt;&lt;/tr&gt;&lt;/tbody&gt;&lt;/table&gt;" style="verticalAlign=top;align=left;overflow=fill;html=1;fillColor=#F694C1;strokeColor=#AF45ED;fontColor=#095C86;" vertex="1" parent="1">
          <mxGeometry x="3866" y="1070" width="180" height="160" as="geometry" />
        </mxCell>
        <mxCell id="P4ZlikCDHFXMKBKO3XiY-50" value="&lt;div style=&quot;box-sizing: border-box ; width: 100% ; background: #e4e4e4 ; padding: 2px&quot;&gt;Servizio_Ordine&lt;/div&gt;&lt;table style=&quot;width: 100% ; font-size: 1em&quot; cellpadding=&quot;2&quot; cellspacing=&quot;0&quot;&gt;&lt;tbody&gt;&lt;tr&gt;&lt;td&gt;PK&lt;/td&gt;&lt;td&gt;Id_servizio_ordine&lt;br&gt;&lt;/td&gt;&lt;/tr&gt;&lt;tr&gt;&lt;td&gt;&lt;br&gt;FK&lt;/td&gt;&lt;td&gt;data&lt;br&gt;&lt;br&gt;Id_ordine&lt;br&gt;Id_servizio&lt;br&gt;&lt;br&gt;&lt;/td&gt;&lt;/tr&gt;&lt;tr&gt;&lt;td&gt;&amp;nbsp;&lt;/td&gt;&lt;td&gt;&lt;br&gt;&lt;/td&gt;&lt;/tr&gt;&lt;/tbody&gt;&lt;/table&gt;" style="verticalAlign=top;align=left;overflow=fill;html=1;fillColor=#F694C1;strokeColor=#AF45ED;fontColor=#095C86;" vertex="1" parent="1">
          <mxGeometry x="3406" y="620" width="180" height="160" as="geometry" />
        </mxCell>
        <mxCell id="P4ZlikCDHFXMKBKO3XiY-52" value="&lt;ul style=&quot;font-size: 32px&quot;&gt;&lt;li style=&quot;font-size: 32px&quot;&gt;Guest(&lt;b&gt;Id_guest&lt;/b&gt;&lt;u&gt;,&lt;/u&gt;&amp;nbsp;nome, cognome, immagine, data_nascita, indirizzo_email, password)&lt;/li&gt;&lt;li style=&quot;font-size: 32px&quot;&gt;Domanda(&lt;b&gt;Id_domanda, &lt;/b&gt;domanda, data_domanda, &lt;u&gt;Id_guest)&lt;/u&gt;&lt;/li&gt;&lt;li style=&quot;font-size: 32px&quot;&gt;Risposta(&lt;b&gt;Id_risposta,&lt;/b&gt;&amp;nbsp;risposta, data_risposta,&amp;nbsp;&lt;u&gt;Id_domanda,&lt;/u&gt; &lt;u&gt;Id_contributor&lt;/u&gt;)&lt;/li&gt;&lt;li style=&quot;font-size: 32px&quot;&gt;Contributor(&lt;b&gt;Id_contributor&lt;/b&gt;&lt;u&gt;,&lt;/u&gt;&amp;nbsp;nome_azienda, settore, partita_iva, descrizione_attività, stato, provincia, città, indirizzo, cap, telefono, fax, indirizzo_email, password)&lt;/li&gt;&lt;li style=&quot;font-size: 32px&quot;&gt;Servizio(&lt;b&gt;Id_servizio, &lt;/b&gt;nome_servizio, descrizione_servizio, immagine, prezzo, disponibilità, &lt;u&gt;Id_contributor&lt;/u&gt;)&lt;/li&gt;&lt;li style=&quot;font-size: 32px&quot;&gt;Servizio_Ordine(&lt;b&gt;Id_servizio_ordine, &lt;/b&gt;data, &lt;u&gt;Id_ordine,&lt;/u&gt; &lt;u&gt;Id_servizio)&lt;/u&gt;&lt;/li&gt;&lt;li style=&quot;font-size: 32px&quot;&gt;Ordine(&lt;b&gt;Id_ordine, &lt;/b&gt;quantità, &lt;u&gt;Id_promozione)&lt;/u&gt;&lt;/li&gt;&lt;li style=&quot;font-size: 32px&quot;&gt;Pagamento(&lt;b&gt;Id_pagamento&lt;/b&gt;&lt;u&gt;,&lt;/u&gt;&amp;nbsp;data_pagamento,&amp;nbsp;&lt;u&gt;Id_modalità_pagamento&lt;/u&gt; )&lt;/li&gt;&lt;li style=&quot;font-size: 32px&quot;&gt;Modalità_pagamento(&lt;b&gt;Id_modalità_pagamento,&lt;/b&gt;&amp;nbsp;nome_modalità)&lt;/li&gt;&lt;li style=&quot;font-size: 32px&quot;&gt;Promozione(&lt;b&gt;Id_promozione&lt;/b&gt;, nome_promozione, data_promozione, percentuale promozione)&lt;/li&gt;&lt;/ul&gt;" style="text;strokeColor=none;fillColor=none;html=1;whiteSpace=wrap;verticalAlign=middle;overflow=hidden;rounded=0;sketch=0;fontColor=#1A1A1A;fontSize=32;" vertex="1" parent="1">
          <mxGeometry x="340" y="1940" width="1320" height="710" as="geometry" />
        </mxCell>
        <mxCell id="P4ZlikCDHFXMKBKO3XiY-53" value="SCHEMA TABELLE" style="text;strokeColor=none;fillColor=none;html=1;fontSize=24;fontStyle=1;verticalAlign=middle;align=center;rounded=0;sketch=0;" vertex="1" parent="1">
          <mxGeometry x="910" y="1850" width="100" height="40" as="geometry" />
        </mxCell>
        <mxCell id="P4ZlikCDHFXMKBKO3XiY-54" value="E/R" style="text;strokeColor=none;fillColor=none;html=1;fontSize=24;fontStyle=1;verticalAlign=middle;align=center;rounded=0;sketch=0;" vertex="1" parent="1">
          <mxGeometry x="910" y="270" width="100" height="40" as="geometry" />
        </mxCell>
        <mxCell id="P4ZlikCDHFXMKBKO3XiY-55" value="SCHEMA LOGICO" style="text;strokeColor=none;fillColor=none;html=1;fontSize=24;fontStyle=1;verticalAlign=middle;align=center;rounded=0;sketch=0;" vertex="1" parent="1">
          <mxGeometry x="3280" y="260" width="100" height="40" as="geometry" />
        </mxCell>
      </root>
    </mxGraphModel>
  </diagram>
</mxfile>
